<svg id="svg" version="1.1" xmlns="http://www.w3.org/2000/svg" xmlns:xlink="http://www.w3.org/1999/xlink" width="400" height="400" viewBox="0, 0, 400,400"><g id="svgg"><path id="path0" d="M197.028 75.279 C 187.233 76.415,178.679 83.738,176.036 93.250 C 175.011 96.937,175.005 97.396,174.991 169.750 L 174.979 239.875 154.802 219.607 C 131.783 196.483,131.826 196.520,125.535 194.777 C 103.179 188.581,85.307 213.580,98.262 232.924 C 99.342 234.537,183.468 318.744,185.375 320.121 C 194.464 326.685,206.781 326.337,215.559 319.267 C 220.040 315.658,301.327 233.740,302.590 231.561 C 309.093 220.338,306.318 206.457,296.033 198.754 C 287.792 192.582,275.839 192.389,267.044 198.285 C 266.401 198.716,256.678 208.249,245.438 219.468 L 225.000 239.868 224.998 169.746 C 224.997 123.702,224.908 98.852,224.741 97.375 C 223.167 83.494,210.852 73.676,197.028 75.279 " stroke="none" fill="#fbfbfb" fill-rule="evenodd"></path><path id="path1" d="M187.125 0.266 C 88.767 7.549,11.431 81.613,1.019 178.500 C 0.233 185.817,0.125 188.411,0.125 200.000 C 0.125 265.417,30.544 324.807,83.477 362.738 C 169.212 424.173,288.086 408.356,355.021 326.607 C 391.403 282.173,406.896 223.612,397.348 166.625 C 382.301 76.827,308.882 9.098,217.375 0.601 C 212.399 0.139,191.905 -0.088,187.125 0.266 M204.262 75.354 C 213.872 77.069,221.567 84.142,224.200 93.682 L 224.875 96.125 224.940 167.869 L 225.005 239.613 245.065 219.592 C 267.813 196.888,267.902 196.812,273.909 194.918 C 296.050 187.935,314.744 212.873,302.080 232.499 C 300.007 235.710,217.245 318.446,213.937 320.613 C 204.567 326.752,192.861 326.302,184.393 319.479 C 181.371 317.043,99.454 234.836,98.251 233.031 C 84.306 212.112,105.476 186.129,128.616 195.763 C 132.824 197.514,132.989 197.663,154.688 219.333 L 175.000 239.618 175.009 168.621 C 175.018 91.371,174.931 96.055,176.438 91.682 C 180.339 80.366,192.465 73.249,204.262 75.354 " stroke="none" fill="#0b0b13" fill-rule="evenodd"></path><path id="path2" d="M182.237 82.438 L 181.375 83.375 182.313 82.513 C 183.185 81.712,183.365 81.500,183.174 81.500 C 183.132 81.500,182.710 81.922,182.237 82.438 M217.500 82.375 C 217.966 82.856,218.404 83.250,218.473 83.250 C 218.542 83.250,218.216 82.856,217.750 82.375 C 217.284 81.894,216.846 81.500,216.777 81.500 C 216.708 81.500,217.034 81.894,217.500 82.375 M280.563 193.929 C 280.941 193.986,281.559 193.986,281.938 193.929 C 282.316 193.872,282.006 193.825,281.250 193.825 C 280.494 193.825,280.184 193.872,280.563 193.929 M100.987 201.188 L 100.125 202.125 101.063 201.263 C 101.935 200.462,102.115 200.250,101.924 200.250 C 101.882 200.250,101.460 200.672,100.987 201.188 M161.500 226.375 C 168.718 233.594,174.679 239.500,174.748 239.500 C 174.817 239.500,168.968 233.594,161.750 226.375 C 154.532 219.156,148.571 213.250,148.502 213.250 C 148.433 213.250,154.282 219.156,161.500 226.375 M297.117 238.063 L 295.625 239.625 297.188 238.133 C 298.639 236.747,298.864 236.500,298.680 236.500 C 298.641 236.500,297.938 237.203,297.117 238.063 M292.370 242.813 L 290.125 245.125 292.438 242.880 C 293.709 241.646,294.750 240.605,294.750 240.568 C 294.750 240.386,294.455 240.665,292.370 242.813 M287.620 247.563 L 285.375 249.875 287.688 247.630 C 289.835 245.545,290.114 245.250,289.932 245.250 C 289.895 245.250,288.854 246.291,287.620 247.563 M146.625 282.000 C 166.562 301.938,182.931 318.250,182.999 318.250 C 183.068 318.250,166.812 301.938,146.875 282.000 C 126.938 262.063,110.569 245.750,110.501 245.750 C 110.432 245.750,126.688 262.063,146.625 282.000 M280.497 254.688 L 275.875 259.375 280.563 254.753 C 284.918 250.458,285.363 250.000,285.185 250.000 C 285.149 250.000,283.040 252.109,280.497 254.688 M273.370 261.813 L 271.125 264.125 273.438 261.880 C 275.585 259.795,275.864 259.500,275.682 259.500 C 275.645 259.500,274.604 260.541,273.370 261.813 M268.620 266.563 L 266.375 268.875 268.688 266.630 C 270.835 264.545,271.114 264.250,270.932 264.250 C 270.895 264.250,269.854 265.291,268.620 266.563 M263.994 271.188 L 261.875 273.375 264.063 271.256 C 266.094 269.287,266.364 269.000,266.182 269.000 C 266.145 269.000,265.160 269.984,263.994 271.188 M259.494 275.688 L 257.375 277.875 259.563 275.756 C 260.766 274.590,261.750 273.605,261.750 273.568 C 261.750 273.386,261.463 273.656,259.494 275.688 M254.994 280.188 L 252.875 282.375 255.063 280.256 C 256.266 279.090,257.250 278.105,257.250 278.068 C 257.250 277.886,256.963 278.156,254.994 280.188 M250.619 284.563 L 248.625 286.625 250.688 284.631 C 251.822 283.534,252.750 282.606,252.750 282.568 C 252.750 282.386,252.471 282.647,250.619 284.563 M246.244 288.938 L 244.125 291.125 246.313 289.006 C 247.516 287.840,248.500 286.855,248.500 286.818 C 248.500 286.636,248.213 286.906,246.244 288.938 M241.869 293.313 L 239.875 295.375 241.938 293.381 C 243.072 292.284,244.000 291.356,244.000 291.318 C 244.000 291.136,243.721 291.397,241.869 293.313 M237.619 297.563 L 235.625 299.625 237.688 297.631 C 238.822 296.534,239.750 295.606,239.750 295.568 C 239.750 295.386,239.471 295.647,237.619 297.563 M233.500 301.625 C 232.476 302.656,231.694 303.500,231.763 303.500 C 231.831 303.500,232.726 302.656,233.750 301.625 C 234.774 300.594,235.556 299.750,235.487 299.750 C 235.419 299.750,234.524 300.594,233.500 301.625 M229.369 305.813 L 227.375 307.875 229.438 305.881 C 230.572 304.784,231.500 303.856,231.500 303.818 C 231.500 303.636,231.221 303.897,229.369 305.813 M225.250 309.875 C 224.226 310.906,223.444 311.750,223.513 311.750 C 223.581 311.750,224.476 310.906,225.500 309.875 C 226.524 308.844,227.306 308.000,227.237 308.000 C 227.169 308.000,226.274 308.844,225.250 309.875 M221.250 313.875 C 220.226 314.906,219.444 315.750,219.513 315.750 C 219.581 315.750,220.476 314.906,221.500 313.875 C 222.524 312.844,223.306 312.000,223.237 312.000 C 223.169 312.000,222.274 312.844,221.250 313.875 " stroke="none" fill="#8c8c8c" fill-rule="evenodd"></path><path id="path3" d="M244.375 220.250 C 233.651 230.975,224.932 239.750,225.001 239.750 C 225.070 239.750,233.901 230.975,244.625 220.250 C 255.349 209.525,264.068 200.750,263.999 200.750 C 263.930 200.750,255.099 209.525,244.375 220.250 M102.375 237.750 C 103.330 238.713,104.168 239.500,104.237 239.500 C 104.305 239.500,103.580 238.713,102.625 237.750 C 101.670 236.787,100.832 236.000,100.763 236.000 C 100.695 236.000,101.420 236.787,102.375 237.750 M107.375 242.750 C 108.607 243.988,109.671 245.000,109.740 245.000 C 109.808 245.000,108.857 243.988,107.625 242.750 C 106.393 241.512,105.329 240.500,105.260 240.500 C 105.192 240.500,106.143 241.512,107.375 242.750 " stroke="none" fill="#838484" fill-rule="evenodd"></path><path id="path4" d="" stroke="none" fill="#626264" fill-rule="evenodd"></path></g></svg>